<svg xmlns="http://www.w3.org/2000/svg" xmlns:xlink="http://www.w3.org/1999/xlink" width="1200" zoomAndPan="magnify" viewBox="0 0 900 899.99999" height="1200" preserveAspectRatio="xMidYMid meet" version="1.0"><defs><clipPath id="3b41330335"><path d="M 283 91.6875 L 876 91.6875 L 876 567 L 283 567 Z M 283 91.6875 " clip-rule="nonzero"/></clipPath><clipPath id="60540ce72c"><path d="M 25 91.6875 L 676 91.6875 L 676 805 L 25 805 Z M 25 91.6875 " clip-rule="nonzero"/></clipPath></defs><g clip-path="url(#3b41330335)"><path fill="#ffffff" d="M 704.121094 566.386719 L 814.078125 457.199219 C 896.394531 373.042969 896.394531 236.339844 813.957031 152.476562 C 776 113.867188 721.496094 91.746094 664.386719 91.746094 C 664.386719 91.746094 664.324219 91.746094 664.324219 91.746094 C 607.273438 91.746094 552.886719 113.929688 515.046875 152.476562 L 461.613281 206.804688 L 461.554688 206.804688 C 461.492188 206.863281 461.492188 206.921875 461.433594 206.980469 L 293.179688 372.507812 C 280.785156 385.023438 280.785156 405.542969 293.355469 418.117188 C 305.160156 430.035156 325.976562 430.394531 338.785156 417.9375 L 444.886719 314.800781 C 450.167969 309.644531 458.054688 309.40625 463.925781 313.4375 L 464.101562 313.203125 C 484.980469 327.554688 511.371094 331.824219 538.238281 325.242188 C 558.046875 320.316406 576.609375 310 590.546875 296.003906 C 596.476562 290.070312 606.085938 290.011719 612.015625 295.941406 C 617.945312 301.875 618.007812 311.480469 612.074219 317.410156 C 594.285156 335.261719 570.679688 348.488281 545.472656 354.714844 C 534.738281 357.324219 524.121094 358.628906 513.625 358.628906 C 512.203125 358.628906 510.835938 358.394531 509.355469 358.335938 L 688.523438 538.332031 C 696.46875 546.398438 701.511719 556.125 704.121094 566.386719 " fill-opacity="1" fill-rule="nonzero"/></g><g clip-path="url(#60540ce72c)"><path fill="#ffffff" d="M 491.742188 470.898438 L 622.394531 601.613281 C 623.046875 602.089844 623.699219 602.621094 624.113281 603.039062 C 635.5625 614.542969 655.488281 614.542969 666.996094 603.039062 C 678.855469 591.117188 678.855469 571.722656 666.996094 559.800781 L 455.324219 347.066406 L 359.960938 439.703125 C 347.859375 451.445312 332.261719 457.910156 315.953125 457.910156 C 299.464844 457.910156 283.394531 451.210938 271.828125 439.527344 C 247.511719 415.152344 247.511719 375.414062 271.828125 350.980469 L 429.347656 195.949219 L 386.648438 152.476562 C 348.691406 113.867188 294.1875 91.6875 237.132812 91.6875 C 237.074219 91.6875 237.074219 91.6875 237.015625 91.6875 C 180.019531 91.746094 125.574219 113.867188 87.679688 152.476562 C 5.0625 236.398438 5.0625 373.101562 87.679688 457.257812 L 429.347656 796.378906 C 440.796875 807.824219 460.78125 807.824219 472.167969 796.378906 C 484.03125 784.339844 484.089844 764.828125 472.167969 752.90625 C 472.167969 752.90625 472.167969 752.847656 472.109375 752.847656 L 340.625 621.363281 C 334.695312 615.433594 334.695312 605.824219 340.625 599.894531 C 346.554688 593.964844 356.164062 593.964844 362.09375 599.894531 L 493.402344 731.199219 C 493.875 731.554688 494.230469 731.914062 494.46875 732.148438 C 505.914062 743.597656 525.902344 743.597656 537.347656 732.148438 C 549.089844 720.167969 549.089844 700.65625 537.289062 688.675781 C 536.992188 688.320312 536.8125 687.964844 536.519531 687.609375 L 405.746094 556.835938 C 399.875 550.90625 399.875 541.296875 405.746094 535.367188 C 411.675781 529.4375 421.285156 529.4375 427.273438 535.367188 L 558.875 667.03125 C 558.996094 667.148438 559.054688 667.265625 559.113281 667.386719 C 570.558594 678.714844 590.429688 678.714844 601.875 667.265625 C 613.734375 655.347656 613.734375 635.953125 601.875 623.972656 L 470.210938 492.371094 C 464.339844 486.4375 464.339844 476.832031 470.210938 470.898438 C 476.144531 464.96875 485.75 464.96875 491.742188 470.898438 " fill-opacity="1" fill-rule="nonzero"/></g></svg>