<svg xmlns="http://www.w3.org/2000/svg" xmlns:xlink="http://www.w3.org/1999/xlink" width="1200" zoomAndPan="magnify" viewBox="0 0 900 225" height="300" preserveAspectRatio="xMidYMid meet" version="1.0"><defs><g/><clipPath id="eba84a0d32"><rect x="0" width="866" y="0" height="43"/></clipPath><clipPath id="f976a76e58"><path d="M 0.160156 14 L 477 14 L 477 193 L 0.160156 193 Z M 0.160156 14 " clip-rule="nonzero"/></clipPath><clipPath id="878610d94d"><rect x="0" width="477" y="0" height="179"/></clipPath><clipPath id="ae7c81b12b"><path d="M 819 0 L 895.359375 0 L 895.359375 225 L 819 225 Z M 819 0 " clip-rule="nonzero"/></clipPath><clipPath id="3871a6ea9f"><rect x="0" width="77" y="0" height="225"/></clipPath><clipPath id="d367f62ac0"><rect x="0" width="334" y="0" height="177"/></clipPath><clipPath id="f174372149"><rect x="0" width="896" y="0" height="225"/></clipPath></defs><g transform="matrix(1, 0, 0, 1, 2, -0.000000000000008531)"><g clip-path="url(#f174372149)"><g transform="matrix(1, 0, 0, 1, 12, 181)"><g clip-path="url(#eba84a0d32)"><g fill="#ffffff" fill-opacity="1"><g transform="translate(0.865551, 31.400962)"><g><path d="M 13.8125 0.265625 C 11.5 0.265625 9.410156 -0.242188 7.546875 -1.265625 C 5.679688 -2.296875 4.21875 -3.707031 3.15625 -5.5 C 2.101562 -7.289062 1.578125 -9.3125 1.578125 -11.5625 C 1.578125 -13.8125 2.101562 -15.832031 3.15625 -17.625 C 4.21875 -19.414062 5.6875 -20.820312 7.5625 -21.84375 C 9.4375 -22.875 11.53125 -23.390625 13.84375 -23.390625 C 15.644531 -23.390625 17.296875 -23.082031 18.796875 -22.46875 C 20.296875 -21.863281 21.570312 -20.96875 22.625 -19.78125 L 20.484375 -17.703125 C 18.742188 -19.535156 16.570312 -20.453125 13.96875 -20.453125 C 12.25 -20.453125 10.695312 -20.066406 9.3125 -19.296875 C 7.925781 -18.523438 6.84375 -17.460938 6.0625 -16.109375 C 5.28125 -14.753906 4.890625 -13.238281 4.890625 -11.5625 C 4.890625 -9.882812 5.28125 -8.367188 6.0625 -7.015625 C 6.84375 -5.660156 7.925781 -4.597656 9.3125 -3.828125 C 10.695312 -3.054688 12.25 -2.671875 13.96875 -2.671875 C 16.550781 -2.671875 18.722656 -3.597656 20.484375 -5.453125 L 22.625 -3.375 C 21.570312 -2.175781 20.289062 -1.269531 18.78125 -0.65625 C 17.269531 -0.0390625 15.613281 0.265625 13.8125 0.265625 Z M 13.8125 0.265625 "/></g></g></g><g fill="#ffffff" fill-opacity="1"><g transform="translate(24.252498, 31.400962)"><g><path d="M 13.90625 0.265625 C 11.570312 0.265625 9.46875 -0.242188 7.59375 -1.265625 C 5.726562 -2.296875 4.257812 -3.710938 3.1875 -5.515625 C 2.113281 -7.316406 1.578125 -9.332031 1.578125 -11.5625 C 1.578125 -13.78125 2.113281 -15.789062 3.1875 -17.59375 C 4.257812 -19.40625 5.726562 -20.820312 7.59375 -21.84375 C 9.46875 -22.875 11.570312 -23.390625 13.90625 -23.390625 C 16.21875 -23.390625 18.304688 -22.875 20.171875 -21.84375 C 22.046875 -20.820312 23.507812 -19.414062 24.5625 -17.625 C 25.625 -15.832031 26.15625 -13.8125 26.15625 -11.5625 C 26.15625 -9.3125 25.625 -7.289062 24.5625 -5.5 C 23.507812 -3.707031 22.046875 -2.296875 20.171875 -1.265625 C 18.304688 -0.242188 16.21875 0.265625 13.90625 0.265625 Z M 13.90625 -2.671875 C 15.601562 -2.671875 17.128906 -3.054688 18.484375 -3.828125 C 19.835938 -4.597656 20.90625 -5.660156 21.6875 -7.015625 C 22.46875 -8.367188 22.859375 -9.882812 22.859375 -11.5625 C 22.859375 -13.238281 22.46875 -14.753906 21.6875 -16.109375 C 20.90625 -17.460938 19.835938 -18.523438 18.484375 -19.296875 C 17.128906 -20.066406 15.601562 -20.453125 13.90625 -20.453125 C 12.207031 -20.453125 10.671875 -20.066406 9.296875 -19.296875 C 7.921875 -18.523438 6.84375 -17.460938 6.0625 -16.109375 C 5.28125 -14.753906 4.890625 -13.238281 4.890625 -11.5625 C 4.890625 -9.882812 5.28125 -8.367188 6.0625 -7.015625 C 6.84375 -5.660156 7.921875 -4.597656 9.296875 -3.828125 C 10.671875 -3.054688 12.207031 -2.671875 13.90625 -2.671875 Z M 13.90625 -2.671875 "/></g></g></g><g fill="#ffffff" fill-opacity="1"><g transform="translate(51.999732, 31.400962)"><g><path d="M 24.90625 0 L 24.875 -16.84375 L 16.515625 -2.8125 L 15 -2.8125 L 6.640625 -16.75 L 6.640625 0 L 3.46875 0 L 3.46875 -23.125 L 6.171875 -23.125 L 15.828125 -6.875 L 25.328125 -23.125 L 28.046875 -23.125 L 28.078125 0 Z M 24.90625 0 "/></g></g></g><g fill="#ffffff" fill-opacity="1"><g transform="translate(83.545678, 31.400962)"><g><path d="M 24.90625 0 L 24.875 -16.84375 L 16.515625 -2.8125 L 15 -2.8125 L 6.640625 -16.75 L 6.640625 0 L 3.46875 0 L 3.46875 -23.125 L 6.171875 -23.125 L 15.828125 -6.875 L 25.328125 -23.125 L 28.046875 -23.125 L 28.078125 0 Z M 24.90625 0 "/></g></g></g><g fill="#ffffff" fill-opacity="1"><g transform="translate(115.091625, 31.400962)"><g><path d="M 20.25 -2.875 L 20.25 0 L 3.46875 0 L 3.46875 -23.125 L 19.78125 -23.125 L 19.78125 -20.25 L 6.765625 -20.25 L 6.765625 -13.140625 L 18.359375 -13.140625 L 18.359375 -10.34375 L 6.765625 -10.34375 L 6.765625 -2.875 Z M 20.25 -2.875 "/></g></g></g><g fill="#ffffff" fill-opacity="1"><g transform="translate(137.223325, 31.400962)"><g><path d="M 18.921875 0 L 13.9375 -7.109375 C 13.320312 -7.054688 12.835938 -7.03125 12.484375 -7.03125 L 6.765625 -7.03125 L 6.765625 0 L 3.46875 0 L 3.46875 -23.125 L 12.484375 -23.125 C 15.484375 -23.125 17.835938 -22.40625 19.546875 -20.96875 C 21.265625 -19.539062 22.125 -17.570312 22.125 -15.0625 C 22.125 -13.28125 21.679688 -11.757812 20.796875 -10.5 C 19.921875 -9.25 18.671875 -8.335938 17.046875 -7.765625 L 22.53125 0 Z M 12.390625 -9.84375 C 14.484375 -9.84375 16.078125 -10.289062 17.171875 -11.1875 C 18.273438 -12.09375 18.828125 -13.382812 18.828125 -15.0625 C 18.828125 -16.738281 18.273438 -18.019531 17.171875 -18.90625 C 16.078125 -19.800781 14.484375 -20.25 12.390625 -20.25 L 6.765625 -20.25 L 6.765625 -9.84375 Z M 12.390625 -9.84375 "/></g></g></g><g fill="#ffffff" fill-opacity="1"><g transform="translate(161.237875, 31.400962)"><g><path d="M 13.8125 0.265625 C 11.5 0.265625 9.410156 -0.242188 7.546875 -1.265625 C 5.679688 -2.296875 4.21875 -3.707031 3.15625 -5.5 C 2.101562 -7.289062 1.578125 -9.3125 1.578125 -11.5625 C 1.578125 -13.8125 2.101562 -15.832031 3.15625 -17.625 C 4.21875 -19.414062 5.6875 -20.820312 7.5625 -21.84375 C 9.4375 -22.875 11.53125 -23.390625 13.84375 -23.390625 C 15.644531 -23.390625 17.296875 -23.082031 18.796875 -22.46875 C 20.296875 -21.863281 21.570312 -20.96875 22.625 -19.78125 L 20.484375 -17.703125 C 18.742188 -19.535156 16.570312 -20.453125 13.96875 -20.453125 C 12.25 -20.453125 10.695312 -20.066406 9.3125 -19.296875 C 7.925781 -18.523438 6.84375 -17.460938 6.0625 -16.109375 C 5.28125 -14.753906 4.890625 -13.238281 4.890625 -11.5625 C 4.890625 -9.882812 5.28125 -8.367188 6.0625 -7.015625 C 6.84375 -5.660156 7.925781 -4.597656 9.3125 -3.828125 C 10.695312 -3.054688 12.25 -2.671875 13.96875 -2.671875 C 16.550781 -2.671875 18.722656 -3.597656 20.484375 -5.453125 L 22.625 -3.375 C 21.570312 -2.175781 20.289062 -1.269531 18.78125 -0.65625 C 17.269531 -0.0390625 15.613281 0.265625 13.8125 0.265625 Z M 12.453125 7.40625 C 11.304688 7.40625 10.328125 7.160156 9.515625 6.671875 L 10.203125 5.046875 C 10.867188 5.421875 11.617188 5.609375 12.453125 5.609375 C 13.679688 5.609375 14.296875 5.171875 14.296875 4.296875 C 14.296875 3.898438 14.140625 3.582031 13.828125 3.34375 C 13.523438 3.113281 13.054688 3 12.421875 3 L 11.53125 3 L 12.359375 -0.234375 L 14.171875 -0.234375 L 13.671875 1.65625 C 14.597656 1.738281 15.304688 2.023438 15.796875 2.515625 C 16.296875 3.015625 16.546875 3.640625 16.546875 4.390625 C 16.546875 5.316406 16.171875 6.050781 15.421875 6.59375 C 14.671875 7.132812 13.679688 7.40625 12.453125 7.40625 Z M 12.453125 7.40625 "/></g></g></g><g fill="#ffffff" fill-opacity="1"><g transform="translate(184.558752, 31.400962)"><g><path d="M 18.203125 -5.78125 L 5.90625 -5.78125 L 3.375 0 L -0.03125 0 L 10.4375 -23.125 L 13.703125 -23.125 L 24.21875 0 L 20.75 0 Z M 17.046875 -8.421875 L 12.0625 -19.75 L 7.0625 -8.421875 Z M 17.046875 -8.421875 "/></g></g></g><g fill="#ffffff" fill-opacity="1"><g transform="translate(208.738456, 31.400962)"><g><path d="M 23.359375 -23.125 L 23.359375 0 L 20.640625 0 L 6.765625 -17.25 L 6.765625 0 L 3.46875 0 L 3.46875 -23.125 L 6.171875 -23.125 L 20.046875 -5.875 L 20.046875 -23.125 Z M 23.359375 -23.125 "/></g></g></g><g fill="#ffffff" fill-opacity="1"><g transform="translate(235.560751, 31.400962)"><g><path d="M 8.0625 -20.25 L 0.125 -20.25 L 0.125 -23.125 L 19.25 -23.125 L 19.25 -20.25 L 11.328125 -20.25 L 11.328125 0 L 8.0625 0 Z M 8.0625 -20.25 "/></g></g></g><g fill="#ffffff" fill-opacity="1"><g transform="translate(254.653482, 31.400962)"><g><path d="M 10.203125 0.265625 C 8.460938 0.265625 6.78125 -0.00390625 5.15625 -0.546875 C 3.539062 -1.085938 2.273438 -1.785156 1.359375 -2.640625 L 2.578125 -5.21875 C 3.453125 -4.425781 4.578125 -3.78125 5.953125 -3.28125 C 7.335938 -2.789062 8.753906 -2.546875 10.203125 -2.546875 C 12.117188 -2.546875 13.550781 -2.867188 14.5 -3.515625 C 15.445312 -4.171875 15.921875 -5.035156 15.921875 -6.109375 C 15.921875 -6.898438 15.660156 -7.539062 15.140625 -8.03125 C 14.628906 -8.53125 13.992188 -8.910156 13.234375 -9.171875 C 12.472656 -9.441406 11.398438 -9.742188 10.015625 -10.078125 C 8.273438 -10.492188 6.867188 -10.910156 5.796875 -11.328125 C 4.722656 -11.742188 3.804688 -12.382812 3.046875 -13.25 C 2.296875 -14.125 1.921875 -15.300781 1.921875 -16.78125 C 1.921875 -18.007812 2.242188 -19.117188 2.890625 -20.109375 C 3.535156 -21.109375 4.519531 -21.90625 5.84375 -22.5 C 7.164062 -23.09375 8.804688 -23.390625 10.765625 -23.390625 C 12.128906 -23.390625 13.472656 -23.210938 14.796875 -22.859375 C 16.117188 -22.503906 17.253906 -22 18.203125 -21.34375 L 17.109375 -18.703125 C 16.140625 -19.316406 15.101562 -19.78125 14 -20.09375 C 12.90625 -20.414062 11.828125 -20.578125 10.765625 -20.578125 C 8.890625 -20.578125 7.484375 -20.234375 6.546875 -19.546875 C 5.617188 -18.867188 5.15625 -17.988281 5.15625 -16.90625 C 5.15625 -16.113281 5.414062 -15.46875 5.9375 -14.96875 C 6.46875 -14.476562 7.125 -14.09375 7.90625 -13.8125 C 8.6875 -13.539062 9.75 -13.253906 11.09375 -12.953125 C 12.832031 -12.535156 14.226562 -12.113281 15.28125 -11.6875 C 16.34375 -11.269531 17.253906 -10.628906 18.015625 -9.765625 C 18.773438 -8.910156 19.15625 -7.757812 19.15625 -6.3125 C 19.15625 -5.101562 18.820312 -3.992188 18.15625 -2.984375 C 17.5 -1.984375 16.5 -1.191406 15.15625 -0.609375 C 13.8125 -0.0234375 12.160156 0.265625 10.203125 0.265625 Z M 10.203125 0.265625 "/></g></g></g><g fill="#ffffff" fill-opacity="1"><g transform="translate(275.166613, 31.400962)"><g/></g></g><g fill="#ffffff" fill-opacity="1"><g transform="translate(284.052341, 31.400962)"><g><path d="M 20.375 0.359375 L 17.3125 -2.703125 C 15.257812 -0.722656 12.679688 0.265625 9.578125 0.265625 C 8.035156 0.265625 6.644531 0.015625 5.40625 -0.484375 C 4.175781 -0.992188 3.210938 -1.707031 2.515625 -2.625 C 1.828125 -3.539062 1.484375 -4.582031 1.484375 -5.75 C 1.484375 -7.15625 1.914062 -8.398438 2.78125 -9.484375 C 3.65625 -10.578125 5.097656 -11.695312 7.109375 -12.84375 C 6.085938 -13.863281 5.367188 -14.78125 4.953125 -15.59375 C 4.535156 -16.40625 4.328125 -17.253906 4.328125 -18.140625 C 4.328125 -19.703125 4.894531 -20.953125 6.03125 -21.890625 C 7.164062 -22.835938 8.675781 -23.3125 10.5625 -23.3125 C 12.332031 -23.3125 13.734375 -22.882812 14.765625 -22.03125 C 15.796875 -21.175781 16.3125 -20 16.3125 -18.5 C 16.3125 -17.332031 15.929688 -16.285156 15.171875 -15.359375 C 14.410156 -14.429688 13.148438 -13.460938 11.390625 -12.453125 L 17.109375 -6.765625 C 17.765625 -8.023438 18.238281 -9.425781 18.53125 -10.96875 L 21.078125 -10.140625 C 20.679688 -8.117188 20.007812 -6.359375 19.0625 -4.859375 L 22.15625 -1.75 Z M 10.5625 -21.015625 C 9.53125 -21.015625 8.722656 -20.753906 8.140625 -20.234375 C 7.554688 -19.710938 7.265625 -19.035156 7.265625 -18.203125 C 7.265625 -17.609375 7.421875 -17.035156 7.734375 -16.484375 C 8.054688 -15.929688 8.679688 -15.179688 9.609375 -14.234375 C 11.128906 -15.097656 12.179688 -15.835938 12.765625 -16.453125 C 13.347656 -17.066406 13.640625 -17.738281 13.640625 -18.46875 C 13.640625 -19.238281 13.367188 -19.851562 12.828125 -20.3125 C 12.285156 -20.78125 11.53125 -21.015625 10.5625 -21.015625 Z M 9.78125 -2.375 C 12.070312 -2.375 13.953125 -3.101562 15.421875 -4.5625 L 8.859375 -11.09375 C 7.265625 -10.21875 6.15625 -9.398438 5.53125 -8.640625 C 4.90625 -7.878906 4.59375 -7.023438 4.59375 -6.078125 C 4.59375 -4.972656 5.070312 -4.078125 6.03125 -3.390625 C 6.988281 -2.710938 8.238281 -2.375 9.78125 -2.375 Z M 9.78125 -2.375 "/></g></g></g><g fill="#ffffff" fill-opacity="1"><g transform="translate(306.71256, 31.400962)"><g/></g></g><g fill="#ffffff" fill-opacity="1"><g transform="translate(315.598288, 31.400962)"><g><path d="M 20.25 -2.875 L 20.25 0 L 3.46875 0 L 3.46875 -23.125 L 19.78125 -23.125 L 19.78125 -20.25 L 6.765625 -20.25 L 6.765625 -13.140625 L 18.359375 -13.140625 L 18.359375 -10.34375 L 6.765625 -10.34375 L 6.765625 -2.875 Z M 20.25 -2.875 "/></g></g></g><g fill="#ffffff" fill-opacity="1"><g transform="translate(337.729988, 31.400962)"><g><path d="M 23.359375 -23.125 L 23.359375 0 L 20.640625 0 L 6.765625 -17.25 L 6.765625 0 L 3.46875 0 L 3.46875 -23.125 L 6.171875 -23.125 L 20.046875 -5.875 L 20.046875 -23.125 Z M 23.359375 -23.125 "/></g></g></g><g fill="#ffffff" fill-opacity="1"><g transform="translate(364.552283, 31.400962)"><g><path d="M 8.0625 -20.25 L 0.125 -20.25 L 0.125 -23.125 L 19.25 -23.125 L 19.25 -20.25 L 11.328125 -20.25 L 11.328125 0 L 8.0625 0 Z M 8.0625 -20.25 "/></g></g></g><g fill="#ffffff" fill-opacity="1"><g transform="translate(383.942308, 31.400962)"><g><path d="M 18.921875 0 L 13.9375 -7.109375 C 13.320312 -7.054688 12.835938 -7.03125 12.484375 -7.03125 L 6.765625 -7.03125 L 6.765625 0 L 3.46875 0 L 3.46875 -23.125 L 12.484375 -23.125 C 15.484375 -23.125 17.835938 -22.40625 19.546875 -20.96875 C 21.265625 -19.539062 22.125 -17.570312 22.125 -15.0625 C 22.125 -13.28125 21.679688 -11.757812 20.796875 -10.5 C 19.921875 -9.25 18.671875 -8.335938 17.046875 -7.765625 L 22.53125 0 Z M 12.390625 -9.84375 C 14.484375 -9.84375 16.078125 -10.289062 17.171875 -11.1875 C 18.273438 -12.09375 18.828125 -13.382812 18.828125 -15.0625 C 18.828125 -16.738281 18.273438 -18.019531 17.171875 -18.90625 C 16.078125 -19.800781 14.484375 -20.25 12.390625 -20.25 L 6.765625 -20.25 L 6.765625 -9.84375 Z M 12.390625 -9.84375 "/></g></g></g><g fill="#ffffff" fill-opacity="1"><g transform="translate(407.956858, 31.400962)"><g><path d="M 20.25 -2.875 L 20.25 0 L 3.46875 0 L 3.46875 -23.125 L 19.78125 -23.125 L 19.78125 -20.25 L 6.765625 -20.25 L 6.765625 -13.140625 L 18.359375 -13.140625 L 18.359375 -10.34375 L 6.765625 -10.34375 L 6.765625 -2.875 Z M 20.25 -2.875 "/></g></g></g><g fill="#ffffff" fill-opacity="1"><g transform="translate(430.088558, 31.400962)"><g><path d="M 12.484375 -23.125 C 15.484375 -23.125 17.835938 -22.40625 19.546875 -20.96875 C 21.265625 -19.539062 22.125 -17.570312 22.125 -15.0625 C 22.125 -12.550781 21.265625 -10.578125 19.546875 -9.140625 C 17.835938 -7.710938 15.484375 -7 12.484375 -7 L 6.765625 -7 L 6.765625 0 L 3.46875 0 L 3.46875 -23.125 Z M 12.390625 -9.875 C 14.484375 -9.875 16.078125 -10.316406 17.171875 -11.203125 C 18.273438 -12.097656 18.828125 -13.382812 18.828125 -15.0625 C 18.828125 -16.738281 18.273438 -18.019531 17.171875 -18.90625 C 16.078125 -19.800781 14.484375 -20.25 12.390625 -20.25 L 6.765625 -20.25 L 6.765625 -9.875 Z M 12.390625 -9.875 "/></g></g></g><g fill="#ffffff" fill-opacity="1"><g transform="translate(453.607645, 31.400962)"><g><path d="M 18.921875 0 L 13.9375 -7.109375 C 13.320312 -7.054688 12.835938 -7.03125 12.484375 -7.03125 L 6.765625 -7.03125 L 6.765625 0 L 3.46875 0 L 3.46875 -23.125 L 12.484375 -23.125 C 15.484375 -23.125 17.835938 -22.40625 19.546875 -20.96875 C 21.265625 -19.539062 22.125 -17.570312 22.125 -15.0625 C 22.125 -13.28125 21.679688 -11.757812 20.796875 -10.5 C 19.921875 -9.25 18.671875 -8.335938 17.046875 -7.765625 L 22.53125 0 Z M 12.390625 -9.84375 C 14.484375 -9.84375 16.078125 -10.289062 17.171875 -11.1875 C 18.273438 -12.09375 18.828125 -13.382812 18.828125 -15.0625 C 18.828125 -16.738281 18.273438 -18.019531 17.171875 -18.90625 C 16.078125 -19.800781 14.484375 -20.25 12.390625 -20.25 L 6.765625 -20.25 L 6.765625 -9.84375 Z M 12.390625 -9.84375 "/></g></g></g><g fill="#ffffff" fill-opacity="1"><g transform="translate(477.622195, 31.400962)"><g><path d="M 20.25 -2.875 L 20.25 0 L 3.46875 0 L 3.46875 -23.125 L 19.78125 -23.125 L 19.78125 -20.25 L 6.765625 -20.25 L 6.765625 -13.140625 L 18.359375 -13.140625 L 18.359375 -10.34375 L 6.765625 -10.34375 L 6.765625 -2.875 Z M 20.25 -2.875 "/></g></g></g><g fill="#ffffff" fill-opacity="1"><g transform="translate(499.753896, 31.400962)"><g><path d="M 23.359375 -23.125 L 23.359375 0 L 20.640625 0 L 6.765625 -17.25 L 6.765625 0 L 3.46875 0 L 3.46875 -23.125 L 6.171875 -23.125 L 20.046875 -5.875 L 20.046875 -23.125 Z M 23.359375 -23.125 "/></g></g></g><g fill="#ffffff" fill-opacity="1"><g transform="translate(526.576191, 31.400962)"><g><path d="M 20.25 -2.875 L 20.25 0 L 3.46875 0 L 3.46875 -23.125 L 19.78125 -23.125 L 19.78125 -20.25 L 6.765625 -20.25 L 6.765625 -13.140625 L 18.359375 -13.140625 L 18.359375 -10.34375 L 6.765625 -10.34375 L 6.765625 -2.875 Z M 20.25 -2.875 "/></g></g></g><g fill="#ffffff" fill-opacity="1"><g transform="translate(548.707891, 31.400962)"><g><path d="M 13.046875 0.265625 C 9.960938 0.265625 7.5625 -0.613281 5.84375 -2.375 C 4.125 -4.132812 3.265625 -6.664062 3.265625 -9.96875 L 3.265625 -23.125 L 6.578125 -23.125 L 6.578125 -10.109375 C 6.578125 -5.148438 8.742188 -2.671875 13.078125 -2.671875 C 15.191406 -2.671875 16.8125 -3.28125 17.9375 -4.5 C 19.0625 -5.726562 19.625 -7.597656 19.625 -10.109375 L 19.625 -23.125 L 22.828125 -23.125 L 22.828125 -9.96875 C 22.828125 -6.644531 21.96875 -4.109375 20.25 -2.359375 C 18.53125 -0.609375 16.128906 0.265625 13.046875 0.265625 Z M 13.046875 0.265625 "/></g></g></g><g fill="#ffffff" fill-opacity="1"><g transform="translate(574.836514, 31.400962)"><g><path d="M 18.921875 0 L 13.9375 -7.109375 C 13.320312 -7.054688 12.835938 -7.03125 12.484375 -7.03125 L 6.765625 -7.03125 L 6.765625 0 L 3.46875 0 L 3.46875 -23.125 L 12.484375 -23.125 C 15.484375 -23.125 17.835938 -22.40625 19.546875 -20.96875 C 21.265625 -19.539062 22.125 -17.570312 22.125 -15.0625 C 22.125 -13.28125 21.679688 -11.757812 20.796875 -10.5 C 19.921875 -9.25 18.671875 -8.335938 17.046875 -7.765625 L 22.53125 0 Z M 12.390625 -9.84375 C 14.484375 -9.84375 16.078125 -10.289062 17.171875 -11.1875 C 18.273438 -12.09375 18.828125 -13.382812 18.828125 -15.0625 C 18.828125 -16.738281 18.273438 -18.019531 17.171875 -18.90625 C 16.078125 -19.800781 14.484375 -20.25 12.390625 -20.25 L 6.765625 -20.25 L 6.765625 -9.84375 Z M 12.390625 -9.84375 "/></g></g></g><g fill="#ffffff" fill-opacity="1"><g transform="translate(598.851064, 31.400962)"><g><path d="M 10.203125 0.265625 C 8.460938 0.265625 6.78125 -0.00390625 5.15625 -0.546875 C 3.539062 -1.085938 2.273438 -1.785156 1.359375 -2.640625 L 2.578125 -5.21875 C 3.453125 -4.425781 4.578125 -3.78125 5.953125 -3.28125 C 7.335938 -2.789062 8.753906 -2.546875 10.203125 -2.546875 C 12.117188 -2.546875 13.550781 -2.867188 14.5 -3.515625 C 15.445312 -4.171875 15.921875 -5.035156 15.921875 -6.109375 C 15.921875 -6.898438 15.660156 -7.539062 15.140625 -8.03125 C 14.628906 -8.53125 13.992188 -8.910156 13.234375 -9.171875 C 12.472656 -9.441406 11.398438 -9.742188 10.015625 -10.078125 C 8.273438 -10.492188 6.867188 -10.910156 5.796875 -11.328125 C 4.722656 -11.742188 3.804688 -12.382812 3.046875 -13.25 C 2.296875 -14.125 1.921875 -15.300781 1.921875 -16.78125 C 1.921875 -18.007812 2.242188 -19.117188 2.890625 -20.109375 C 3.535156 -21.109375 4.519531 -21.90625 5.84375 -22.5 C 7.164062 -23.09375 8.804688 -23.390625 10.765625 -23.390625 C 12.128906 -23.390625 13.472656 -23.210938 14.796875 -22.859375 C 16.117188 -22.503906 17.253906 -22 18.203125 -21.34375 L 17.109375 -18.703125 C 16.140625 -19.316406 15.101562 -19.78125 14 -20.09375 C 12.90625 -20.414062 11.828125 -20.578125 10.765625 -20.578125 C 8.890625 -20.578125 7.484375 -20.234375 6.546875 -19.546875 C 5.617188 -18.867188 5.15625 -17.988281 5.15625 -16.90625 C 5.15625 -16.113281 5.414062 -15.46875 5.9375 -14.96875 C 6.46875 -14.476562 7.125 -14.09375 7.90625 -13.8125 C 8.6875 -13.539062 9.75 -13.253906 11.09375 -12.953125 C 12.832031 -12.535156 14.226562 -12.113281 15.28125 -11.6875 C 16.34375 -11.269531 17.253906 -10.628906 18.015625 -9.765625 C 18.773438 -8.910156 19.15625 -7.757812 19.15625 -6.3125 C 19.15625 -5.101562 18.820312 -3.992188 18.15625 -2.984375 C 17.5 -1.984375 16.5 -1.191406 15.15625 -0.609375 C 13.8125 -0.0234375 12.160156 0.265625 10.203125 0.265625 Z M 10.203125 0.265625 "/></g></g></g><g fill="#ffffff" fill-opacity="1"><g transform="translate(619.364196, 31.400962)"><g/></g></g><g fill="#ffffff" fill-opacity="1"><g transform="translate(628.249923, 31.400962)"><g><path d="M 3.46875 -23.125 L 13.21875 -23.125 C 15.65625 -23.125 17.820312 -22.640625 19.71875 -21.671875 C 21.613281 -20.703125 23.082031 -19.34375 24.125 -17.59375 C 25.175781 -15.84375 25.703125 -13.832031 25.703125 -11.5625 C 25.703125 -9.289062 25.175781 -7.28125 24.125 -5.53125 C 23.082031 -3.78125 21.613281 -2.421875 19.71875 -1.453125 C 17.820312 -0.484375 15.65625 0 13.21875 0 L 3.46875 0 Z M 13.015625 -2.875 C 14.890625 -2.875 16.535156 -3.234375 17.953125 -3.953125 C 19.367188 -4.679688 20.460938 -5.703125 21.234375 -7.015625 C 22.003906 -8.328125 22.390625 -9.84375 22.390625 -11.5625 C 22.390625 -13.28125 22.003906 -14.789062 21.234375 -16.09375 C 20.460938 -17.40625 19.367188 -18.425781 17.953125 -19.15625 C 16.535156 -19.882812 14.890625 -20.25 13.015625 -20.25 L 6.765625 -20.25 L 6.765625 -2.875 Z M 13.015625 -2.875 "/></g></g></g><g fill="#ffffff" fill-opacity="1"><g transform="translate(654.5437, 31.400962)"><g><path d="M 12.328125 -8 L 12.328125 0 L 9.046875 0 L 9.046875 -8.0625 L -0.125 -23.125 L 3.40625 -23.125 L 10.796875 -10.9375 L 18.234375 -23.125 L 21.5 -23.125 Z M 12.328125 -8 "/></g></g></g><g fill="#ffffff" fill-opacity="1"><g transform="translate(675.51928, 31.400962)"><g><path d="M 23.359375 -23.125 L 23.359375 0 L 20.640625 0 L 6.765625 -17.25 L 6.765625 0 L 3.46875 0 L 3.46875 -23.125 L 6.171875 -23.125 L 20.046875 -5.875 L 20.046875 -23.125 Z M 23.359375 -23.125 "/></g></g></g><g fill="#ffffff" fill-opacity="1"><g transform="translate(702.341576, 31.400962)"><g><path d="M 18.203125 -5.78125 L 5.90625 -5.78125 L 3.375 0 L -0.03125 0 L 10.4375 -23.125 L 13.703125 -23.125 L 24.21875 0 L 20.75 0 Z M 17.046875 -8.421875 L 12.0625 -19.75 L 7.0625 -8.421875 Z M 17.046875 -8.421875 "/></g></g></g><g fill="#ffffff" fill-opacity="1"><g transform="translate(726.521279, 31.400962)"><g><path d="M 24.90625 0 L 24.875 -16.84375 L 16.515625 -2.8125 L 15 -2.8125 L 6.640625 -16.75 L 6.640625 0 L 3.46875 0 L 3.46875 -23.125 L 6.171875 -23.125 L 15.828125 -6.875 L 25.328125 -23.125 L 28.046875 -23.125 L 28.078125 0 Z M 24.90625 0 "/></g></g></g><g fill="#ffffff" fill-opacity="1"><g transform="translate(758.067226, 31.400962)"><g><path d="M 3.46875 -23.125 L 6.765625 -23.125 L 6.765625 0 L 3.46875 0 Z M 3.46875 -23.125 "/></g></g></g><g fill="#ffffff" fill-opacity="1"><g transform="translate(768.307285, 31.400962)"><g><path d="M 27.28125 2.109375 C 26.53125 2.992188 25.660156 3.664062 24.671875 4.125 C 23.679688 4.59375 22.613281 4.828125 21.46875 4.828125 C 20.019531 4.828125 18.660156 4.476562 17.390625 3.78125 C 16.117188 3.082031 14.671875 1.898438 13.046875 0.234375 C 10.867188 0.117188 8.90625 -0.460938 7.15625 -1.515625 C 5.40625 -2.578125 4.035156 -3.984375 3.046875 -5.734375 C 2.066406 -7.484375 1.578125 -9.425781 1.578125 -11.5625 C 1.578125 -13.78125 2.113281 -15.789062 3.1875 -17.59375 C 4.257812 -19.40625 5.726562 -20.820312 7.59375 -21.84375 C 9.46875 -22.875 11.570312 -23.390625 13.90625 -23.390625 C 16.21875 -23.390625 18.304688 -22.875 20.171875 -21.84375 C 22.046875 -20.820312 23.507812 -19.414062 24.5625 -17.625 C 25.625 -15.832031 26.15625 -13.8125 26.15625 -11.5625 C 26.15625 -9.664062 25.773438 -7.925781 25.015625 -6.34375 C 24.253906 -4.757812 23.1875 -3.425781 21.8125 -2.34375 C 20.4375 -1.269531 18.859375 -0.519531 17.078125 -0.09375 C 17.847656 0.71875 18.585938 1.304688 19.296875 1.671875 C 20.015625 2.035156 20.75 2.21875 21.5 2.21875 C 23.132812 2.21875 24.546875 1.554688 25.734375 0.234375 Z M 4.890625 -11.5625 C 4.890625 -9.882812 5.28125 -8.367188 6.0625 -7.015625 C 6.84375 -5.660156 7.921875 -4.597656 9.296875 -3.828125 C 10.671875 -3.054688 12.207031 -2.671875 13.90625 -2.671875 C 15.582031 -2.671875 17.101562 -3.054688 18.46875 -3.828125 C 19.832031 -4.597656 20.90625 -5.660156 21.6875 -7.015625 C 22.46875 -8.367188 22.859375 -9.882812 22.859375 -11.5625 C 22.859375 -13.238281 22.46875 -14.753906 21.6875 -16.109375 C 20.90625 -17.460938 19.832031 -18.523438 18.46875 -19.296875 C 17.101562 -20.066406 15.582031 -20.453125 13.90625 -20.453125 C 12.207031 -20.453125 10.671875 -20.066406 9.296875 -19.296875 C 7.921875 -18.523438 6.84375 -17.460938 6.0625 -16.109375 C 5.28125 -14.753906 4.890625 -13.238281 4.890625 -11.5625 Z M 4.890625 -11.5625 "/></g></g></g><g fill="#ffffff" fill-opacity="1"><g transform="translate(796.054519, 31.400962)"><g><path d="M 13.046875 0.265625 C 9.960938 0.265625 7.5625 -0.613281 5.84375 -2.375 C 4.125 -4.132812 3.265625 -6.664062 3.265625 -9.96875 L 3.265625 -23.125 L 6.578125 -23.125 L 6.578125 -10.109375 C 6.578125 -5.148438 8.742188 -2.671875 13.078125 -2.671875 C 15.191406 -2.671875 16.8125 -3.28125 17.9375 -4.5 C 19.0625 -5.726562 19.625 -7.597656 19.625 -10.109375 L 19.625 -23.125 L 22.828125 -23.125 L 22.828125 -9.96875 C 22.828125 -6.644531 21.96875 -4.109375 20.25 -2.359375 C 18.53125 -0.609375 16.128906 0.265625 13.046875 0.265625 Z M 13.046875 0.265625 "/></g></g></g><g fill="#ffffff" fill-opacity="1"><g transform="translate(822.183142, 31.400962)"><g><path d="M 20.25 -2.875 L 20.25 0 L 3.46875 0 L 3.46875 -23.125 L 19.78125 -23.125 L 19.78125 -20.25 L 6.765625 -20.25 L 6.765625 -13.140625 L 18.359375 -13.140625 L 18.359375 -10.34375 L 6.765625 -10.34375 L 6.765625 -2.875 Z M 20.25 -2.875 "/></g></g></g><g fill="#ffffff" fill-opacity="1"><g transform="translate(844.3148, 31.400962)"><g><path d="M 10.203125 0.265625 C 8.460938 0.265625 6.78125 -0.00390625 5.15625 -0.546875 C 3.539062 -1.085938 2.273438 -1.785156 1.359375 -2.640625 L 2.578125 -5.21875 C 3.453125 -4.425781 4.578125 -3.78125 5.953125 -3.28125 C 7.335938 -2.789062 8.753906 -2.546875 10.203125 -2.546875 C 12.117188 -2.546875 13.550781 -2.867188 14.5 -3.515625 C 15.445312 -4.171875 15.921875 -5.035156 15.921875 -6.109375 C 15.921875 -6.898438 15.660156 -7.539062 15.140625 -8.03125 C 14.628906 -8.53125 13.992188 -8.910156 13.234375 -9.171875 C 12.472656 -9.441406 11.398438 -9.742188 10.015625 -10.078125 C 8.273438 -10.492188 6.867188 -10.910156 5.796875 -11.328125 C 4.722656 -11.742188 3.804688 -12.382812 3.046875 -13.25 C 2.296875 -14.125 1.921875 -15.300781 1.921875 -16.78125 C 1.921875 -18.007812 2.242188 -19.117188 2.890625 -20.109375 C 3.535156 -21.109375 4.519531 -21.90625 5.84375 -22.5 C 7.164062 -23.09375 8.804688 -23.390625 10.765625 -23.390625 C 12.128906 -23.390625 13.472656 -23.210938 14.796875 -22.859375 C 16.117188 -22.503906 17.253906 -22 18.203125 -21.34375 L 17.109375 -18.703125 C 16.140625 -19.316406 15.101562 -19.78125 14 -20.09375 C 12.90625 -20.414062 11.828125 -20.578125 10.765625 -20.578125 C 8.890625 -20.578125 7.484375 -20.234375 6.546875 -19.546875 C 5.617188 -18.867188 5.15625 -17.988281 5.15625 -16.90625 C 5.15625 -16.113281 5.414062 -15.46875 5.9375 -14.96875 C 6.46875 -14.476562 7.125 -14.09375 7.90625 -13.8125 C 8.6875 -13.539062 9.75 -13.253906 11.09375 -12.953125 C 12.832031 -12.535156 14.226562 -12.113281 15.28125 -11.6875 C 16.34375 -11.269531 17.253906 -10.628906 18.015625 -9.765625 C 18.773438 -8.910156 19.15625 -7.757812 19.15625 -6.3125 C 19.15625 -5.101562 18.820312 -3.992188 18.15625 -2.984375 C 17.5 -1.984375 16.5 -1.191406 15.15625 -0.609375 C 13.8125 -0.0234375 12.160156 0.265625 10.203125 0.265625 Z M 10.203125 0.265625 "/></g></g></g></g></g><g clip-path="url(#f976a76e58)"><g transform="matrix(1, 0, 0, 1, 0, 14)"><g clip-path="url(#878610d94d)"><g fill="#ffffff" fill-opacity="1"><g transform="translate(0.286084, 131.186508)"><g><path d="M 50.15625 1.578125 C 43.90625 1.578125 38.140625 0.484375 32.859375 -1.703125 C 27.585938 -3.890625 23.023438 -6.953125 19.171875 -10.890625 C 15.316406 -14.828125 12.332031 -19.492188 10.21875 -24.890625 C 8.113281 -30.285156 7.0625 -36.191406 7.0625 -42.609375 C 7.0625 -49.015625 8.113281 -54.914062 10.21875 -60.3125 C 12.332031 -65.71875 15.316406 -70.382812 19.171875 -74.3125 C 23.023438 -78.25 27.585938 -81.3125 32.859375 -83.5 C 38.140625 -85.695312 43.90625 -86.796875 50.15625 -86.796875 C 56.894531 -86.796875 63.082031 -85.554688 68.71875 -83.078125 C 74.351562 -80.609375 79.179688 -77.078125 83.203125 -72.484375 C 87.222656 -67.898438 90.164062 -62.484375 92.03125 -56.234375 L 80.59375 -56.234375 C 78.394531 -62.410156 74.597656 -67.257812 69.203125 -70.78125 C 63.804688 -74.3125 57.578125 -76.078125 50.515625 -76.078125 C 44.191406 -76.078125 38.59375 -74.65625 33.71875 -71.8125 C 28.851562 -68.976562 25.019531 -65.046875 22.21875 -60.015625 C 19.414062 -54.984375 18.015625 -49.179688 18.015625 -42.609375 C 18.015625 -36.035156 19.414062 -30.234375 22.21875 -25.203125 C 25.019531 -20.171875 28.851562 -16.234375 33.71875 -13.390625 C 38.59375 -10.546875 44.191406 -9.125 50.515625 -9.125 C 57.742188 -9.125 64.15625 -10.988281 69.75 -14.71875 C 75.351562 -18.457031 79.25 -23.535156 81.4375 -29.953125 L 92.765625 -29.953125 C 91.054688 -23.617188 88.148438 -18.097656 84.046875 -13.390625 C 79.953125 -8.679688 75.003906 -5.007812 69.203125 -2.375 C 63.398438 0.257812 57.050781 1.578125 50.15625 1.578125 Z M 50.15625 1.578125 "/></g></g></g><g fill="#ffffff" fill-opacity="1"><g transform="translate(99.585787, 131.186508)"><g><path d="M 12.421875 0 L 12.421875 -85.21875 L 23.125 -85.21875 L 23.125 -10.21875 L 64.515625 -10.21875 L 64.515625 0 Z M 12.421875 0 "/></g></g></g><g fill="#ffffff" fill-opacity="1"><g transform="translate(167.854379, 131.186508)"><g><path d="M 12.421875 0 L 12.421875 -85.21875 L 23.125 -85.21875 L 23.125 0 Z M 12.421875 0 "/></g></g></g><g fill="#ffffff" fill-opacity="1"><g transform="translate(203.388087, 131.186508)"><g><path d="M 50.15625 1.578125 C 43.90625 1.578125 38.140625 0.484375 32.859375 -1.703125 C 27.585938 -3.890625 23.023438 -6.953125 19.171875 -10.890625 C 15.316406 -14.828125 12.332031 -19.492188 10.21875 -24.890625 C 8.113281 -30.285156 7.0625 -36.191406 7.0625 -42.609375 C 7.0625 -49.015625 8.113281 -54.914062 10.21875 -60.3125 C 12.332031 -65.71875 15.316406 -70.382812 19.171875 -74.3125 C 23.023438 -78.25 27.585938 -81.3125 32.859375 -83.5 C 38.140625 -85.695312 43.90625 -86.796875 50.15625 -86.796875 C 56.894531 -86.796875 63.082031 -85.554688 68.71875 -83.078125 C 74.351562 -80.609375 79.179688 -77.078125 83.203125 -72.484375 C 87.222656 -67.898438 90.164062 -62.484375 92.03125 -56.234375 L 80.59375 -56.234375 C 78.394531 -62.410156 74.597656 -67.257812 69.203125 -70.78125 C 63.804688 -74.3125 57.578125 -76.078125 50.515625 -76.078125 C 44.191406 -76.078125 38.59375 -74.65625 33.71875 -71.8125 C 28.851562 -68.976562 25.019531 -65.046875 22.21875 -60.015625 C 19.414062 -54.984375 18.015625 -49.179688 18.015625 -42.609375 C 18.015625 -36.035156 19.414062 -30.234375 22.21875 -25.203125 C 25.019531 -20.171875 28.851562 -16.234375 33.71875 -13.390625 C 38.59375 -10.546875 44.191406 -9.125 50.515625 -9.125 C 57.742188 -9.125 64.15625 -10.988281 69.75 -14.71875 C 75.351562 -18.457031 79.25 -23.535156 81.4375 -29.953125 L 92.765625 -29.953125 C 91.054688 -23.617188 88.148438 -18.097656 84.046875 -13.390625 C 79.953125 -8.679688 75.003906 -5.007812 69.203125 -2.375 C 63.398438 0.257812 57.050781 1.578125 50.15625 1.578125 Z M 50.15625 1.578125 "/></g></g></g><g fill="#ffffff" fill-opacity="1"><g transform="translate(302.687791, 131.186508)"><g><path d="M 68.296875 0 L 68.296875 -38.34375 L 23.125 -38.34375 L 23.125 0 L 12.421875 0 L 12.421875 -85.21875 L 23.125 -85.21875 L 23.125 -48.578125 L 68.296875 -48.578125 L 68.296875 -85.21875 L 79 -85.21875 L 79 0 Z M 68.296875 0 "/></g></g></g><g fill="#ffffff" fill-opacity="1"><g transform="translate(394.077628, 131.186508)"><g><path d="M 34.078125 0 L 34.078125 -30.671875 L 2.0625 -85.21875 L 14.484375 -85.21875 L 28.359375 -61.359375 L 39.4375 -42.125 L 64.515625 -85.21875 L 76.578125 -85.21875 L 44.5625 -30.671875 L 44.5625 0 Z M 34.078125 0 "/></g></g></g></g></g></g><g clip-path="url(#ae7c81b12b)"><g transform="matrix(1, 0, 0, 1, 819, -0.000000000000008531)"><g clip-path="url(#3871a6ea9f)"><g fill="#40a2d9" fill-opacity="1"><g transform="translate(9.529699, 185.384903)"><g><path d="M 31.84375 -178.734375 C 42.925781 -176.097656 46.234375 -166.726562 41.765625 -150.625 C 39.085938 -140.5 35.269531 -131.707031 30.3125 -124.25 C 25.351562 -116.789062 20.375 -112.222656 15.375 -110.546875 C 12.71875 -109.773438 10.238281 -110.207031 7.9375 -111.84375 C 6.445312 -113.039062 6 -114.84375 6.59375 -117.25 C 7.195312 -119.664062 9.019531 -123.804688 12.0625 -129.671875 C 13.675781 -132.453125 15.195312 -135.421875 16.625 -138.578125 C 18.0625 -141.742188 18.769531 -143.5625 18.75 -144.03125 C 18.726562 -144.507812 17.769531 -144.707031 15.875 -144.625 C 13.03125 -144.476562 10.34375 -145.851562 7.8125 -148.75 C 7.132812 -149.507812 6.691406 -150.398438 6.484375 -151.421875 C 6.285156 -152.453125 6.132812 -153.992188 6.03125 -156.046875 C 5.925781 -158.265625 5.960938 -159.972656 6.140625 -161.171875 C 6.328125 -162.378906 6.773438 -163.796875 7.484375 -165.421875 C 9.484375 -170.109375 12.914062 -173.757812 17.78125 -176.375 C 22.65625 -179 27.34375 -179.785156 31.84375 -178.734375 Z M 31.84375 -178.734375 "/></g></g></g></g></g></g><g transform="matrix(1, 0, 0, 1, 483, 8)"><g clip-path="url(#d367f62ac0)"><g fill="#e22263" fill-opacity="1"><g transform="translate(18.876998, 142.402131)"><g><path d="M -2.28125 -12.328125 C -3.84375 -10.609375 -5.707031 -10.054688 -7.875 -10.671875 C -9.539062 -11.109375 -10.660156 -12.03125 -11.234375 -13.4375 C -11.816406 -14.84375 -11.96875 -16.878906 -11.6875 -19.546875 C -11.09375 -24.085938 -9.953125 -29.519531 -8.265625 -35.84375 C -6.578125 -42.164062 -4.445312 -49.019531 -1.875 -56.40625 C 0.6875 -63.800781 3.570312 -71.210938 6.78125 -78.640625 C 7.800781 -80.941406 8.816406 -83.265625 9.828125 -85.609375 C 10.835938 -87.953125 11.523438 -89.644531 11.890625 -90.6875 C 12.703125 -92.988281 13.546875 -94.566406 14.421875 -95.421875 C 15.296875 -96.285156 16.453125 -96.753906 17.890625 -96.828125 C 21.972656 -97.023438 24.132812 -94.617188 24.375 -89.609375 C 24.40625 -88.898438 24.390625 -87.617188 24.328125 -85.765625 C 24.265625 -83.921875 24.171875 -82.128906 24.046875 -80.390625 C 23.703125 -76.992188 23.414062 -73.421875 23.1875 -69.671875 C 22.96875 -65.921875 22.804688 -62.378906 22.703125 -59.046875 C 22.609375 -55.722656 22.585938 -53.007812 22.640625 -50.90625 C 22.691406 -48.8125 22.816406 -47.769531 23.015625 -47.78125 C 23.222656 -47.789062 23.78125 -48.535156 24.6875 -50.015625 C 25.59375 -51.492188 26.65625 -53.390625 27.875 -55.703125 C 29.09375 -58.015625 30.296875 -60.425781 31.484375 -62.9375 C 32.140625 -64.300781 33.023438 -66.1875 34.140625 -68.59375 C 35.253906 -71 36.457031 -73.664062 37.75 -76.59375 C 39.039062 -79.53125 40.234375 -82.351562 41.328125 -85.0625 C 45.929688 -95.726562 49.5 -103.9375 52.03125 -109.6875 C 54.570312 -115.4375 56.445312 -119.515625 57.65625 -121.921875 C 58.875 -124.335938 59.679688 -125.710938 60.078125 -126.046875 C 62.546875 -128.109375 65.207031 -128.644531 68.0625 -127.65625 C 70.914062 -126.664062 72.78125 -124.554688 73.65625 -121.328125 C 74.039062 -119.910156 74.128906 -118.128906 73.921875 -115.984375 C 73.859375 -115.046875 73.625 -113.4375 73.21875 -111.15625 C 72.820312 -108.882812 72.359375 -106.378906 71.828125 -103.640625 C 71.296875 -100.910156 70.753906 -98.300781 70.203125 -95.8125 C 69.660156 -93.332031 69.21875 -91.414062 68.875 -90.0625 C 67.5 -84.894531 66.019531 -78.535156 64.4375 -70.984375 C 62.851562 -63.441406 61.273438 -55.332031 59.703125 -46.65625 C 58.128906 -37.976562 56.675781 -29.359375 55.34375 -20.796875 C 54.570312 -15.535156 53.953125 -11.410156 53.484375 -8.421875 C 53.015625 -5.429688 52.617188 -2.976562 52.296875 -1.0625 C 51.984375 0.84375 51.625 2.828125 51.21875 4.890625 C 50.882812 6.742188 50.539062 8.753906 50.1875 10.921875 C 49.832031 13.097656 49.53125 14.753906 49.28125 15.890625 C 48.738281 19.492188 48.101562 22.234375 47.375 24.109375 C 46.65625 25.992188 45.800781 27.320312 44.8125 28.09375 C 43.320312 29.1875 41.800781 29.5625 40.25 29.21875 C 38.695312 28.78125 37.472656 27.816406 36.578125 26.328125 C 36.128906 25.535156 35.835938 24.34375 35.703125 22.75 C 35.578125 21.164062 35.648438 19.960938 35.921875 19.140625 C 36.191406 18.410156 36.476562 16.347656 36.78125 12.953125 C 37.082031 9.554688 37.398438 3.960938 37.734375 -3.828125 C 37.898438 -6.804688 38.09375 -9.65625 38.3125 -12.375 C 38.539062 -15.09375 38.6875 -16.914062 38.75 -17.84375 C 38.8125 -18.664062 38.894531 -20.023438 39 -21.921875 C 39.113281 -23.816406 39.238281 -25.585938 39.375 -27.234375 C 39.5 -28.984375 39.71875 -31.347656 40.03125 -34.328125 C 40.34375 -37.316406 40.644531 -39.992188 40.9375 -42.359375 C 41.226562 -44.734375 41.460938 -46.789062 41.640625 -48.53125 C 41.816406 -50.28125 41.851562 -51.207031 41.75 -51.3125 C 41.75 -51.3125 41.535156 -50.890625 41.109375 -50.046875 C 40.679688 -49.203125 40.144531 -48.15625 39.5 -46.90625 C 37.164062 -42.070312 34.703125 -37.925781 32.109375 -34.46875 C 29.515625 -31.019531 27.113281 -28.734375 24.90625 -27.609375 C 21.8125 -26.128906 18.851562 -25.988281 16.03125 -27.1875 C 11.945312 -28.9375 9.34375 -33.109375 8.21875 -39.703125 C 8.070312 -40.515625 7.929688 -41.195312 7.796875 -41.75 C 7.671875 -42.3125 7.5625 -42.585938 7.46875 -42.578125 C 7.363281 -42.578125 7.035156 -41.898438 6.484375 -40.546875 C 5.503906 -37.316406 4.535156 -34.039062 3.578125 -30.71875 C 2.617188 -27.394531 1.757812 -24.128906 1 -20.921875 C 0.207031 -18.023438 -0.414062 -16 -0.875 -14.84375 C -1.332031 -13.695312 -1.800781 -12.859375 -2.28125 -12.328125 Z M -2.28125 -12.328125 "/></g></g></g><g fill="#82428e" fill-opacity="1"><g transform="translate(93.480087, 138.793835)"><g><path d="M 44 -45.734375 C 46.1875 -49.117188 47.832031 -52.066406 48.9375 -54.578125 C 50.050781 -57.085938 51.085938 -60.097656 52.046875 -63.609375 C 53.171875 -67.765625 53.828125 -71.585938 54.015625 -75.078125 C 54.210938 -78.566406 53.878906 -80.703125 53.015625 -81.484375 C 52.378906 -81.960938 51.164062 -82.207031 49.375 -82.21875 C 47.582031 -82.238281 44.757812 -81.898438 40.90625 -81.203125 C 36.226562 -80.460938 33.046875 -80.101562 31.359375 -80.125 C 29.679688 -80.144531 28.257812 -80.585938 27.09375 -81.453125 C 26.019531 -82.117188 25.390625 -82.347656 25.203125 -82.140625 C 24.921875 -81.609375 24.363281 -80.375 23.53125 -78.4375 C 22.707031 -76.5 21.8125 -74.40625 20.84375 -72.15625 C 19.875 -69.914062 19.070312 -67.960938 18.4375 -66.296875 C 17.445312 -63.585938 16.40625 -60.335938 15.3125 -56.546875 C 14.21875 -52.765625 13.242188 -49.007812 12.390625 -45.28125 C 11.546875 -41.550781 10.882812 -38.289062 10.40625 -35.5 C 10.03125 -32.625 9.78125 -30.363281 9.65625 -28.71875 C 9.53125 -27.070312 9.570312 -25.179688 9.78125 -23.046875 C 10 -20.804688 10.175781 -19.304688 10.3125 -18.546875 C 10.445312 -17.785156 10.679688 -17.207031 11.015625 -16.8125 C 12.085938 -15.726562 14.316406 -16.191406 17.703125 -18.203125 C 22.066406 -20.867188 26.613281 -24.671875 31.34375 -29.609375 C 36.070312 -34.546875 40.289062 -39.921875 44 -45.734375 Z M 63.546875 -95.65625 C 65.390625 -93.695312 66.742188 -91.640625 67.609375 -89.484375 C 68.484375 -87.328125 69.207031 -84.472656 69.78125 -80.921875 C 70.351562 -77.460938 70.519531 -74.007812 70.28125 -70.5625 C 70.039062 -67.125 69.320312 -63.023438 68.125 -58.265625 C 63.675781 -40.023438 52.992188 -22.71875 36.078125 -6.34375 C 28.253906 1.101562 20.867188 4.941406 13.921875 5.171875 C 12.796875 5.222656 11.664062 5.222656 10.53125 5.171875 C 9.40625 5.117188 8.738281 5.050781 8.53125 4.96875 C 4.363281 3.625 0.847656 0.796875 -2.015625 -3.515625 C -4.890625 -7.828125 -6.734375 -13.085938 -7.546875 -19.296875 C -8.566406 -28.046875 -7.984375 -37.226562 -5.796875 -46.84375 C -3.609375 -56.46875 0.457031 -67.671875 6.40625 -80.453125 C 7.144531 -81.929688 8.175781 -83.800781 9.5 -86.0625 C 10.820312 -88.320312 12.296875 -90.644531 13.921875 -93.03125 C 15.546875 -95.414062 17.050781 -97.585938 18.4375 -99.546875 C 19.832031 -101.503906 20.972656 -102.910156 21.859375 -103.765625 C 25.085938 -106.898438 28.5 -109.347656 32.09375 -111.109375 C 35.6875 -112.867188 38.628906 -113.441406 40.921875 -112.828125 C 43.804688 -112.253906 45.816406 -110.765625 46.953125 -108.359375 C 47.742188 -107.078125 48.445312 -106.445312 49.0625 -106.46875 C 49.675781 -106.5 50.4375 -106.097656 51.34375 -105.265625 C 52.25 -104.441406 52.765625 -103.726562 52.890625 -103.125 C 52.921875 -102.519531 53.144531 -102.226562 53.5625 -102.25 C 54.164062 -102.269531 55.097656 -101.925781 56.359375 -101.21875 C 57.617188 -100.519531 58.9375 -99.664062 60.3125 -98.65625 C 61.695312 -97.644531 62.773438 -96.644531 63.546875 -95.65625 Z M 63.546875 -95.65625 "/></g></g></g><g fill="#41569d" fill-opacity="1"><g transform="translate(170.537617, 135.066826)"><g><path d="M 36.96875 -38.640625 C 34.164062 -33.179688 31.71875 -28.816406 29.625 -25.546875 C 27.53125 -22.273438 25.125 -19.035156 22.40625 -15.828125 C 11.394531 -2.492188 2.1875 0.660156 -5.21875 -6.359375 C -6.820312 -7.910156 -7.945312 -9.566406 -8.59375 -11.328125 C -9.25 -13.097656 -9.753906 -15.5625 -10.109375 -18.71875 C -10.390625 -22.269531 -10.289062 -26 -9.8125 -29.90625 C -9.332031 -33.820312 -8.421875 -38.320312 -7.078125 -43.40625 C -5.742188 -48.488281 -3.914062 -54.460938 -1.59375 -61.328125 C -0.144531 -65.398438 1.441406 -69.597656 3.171875 -73.921875 C 4.910156 -78.253906 6.34375 -81.476562 7.46875 -83.59375 C 10.488281 -88.945312 13.398438 -91.179688 16.203125 -90.296875 C 16.929688 -90.023438 17.648438 -89.492188 18.359375 -88.703125 C 19.066406 -87.921875 19.4375 -87.175781 19.46875 -86.46875 C 19.46875 -86.363281 19.15625 -85.320312 18.53125 -83.34375 C 17.90625 -81.363281 17.148438 -79.078125 16.265625 -76.484375 C 6.929688 -49.304688 2.492188 -30.96875 2.953125 -21.46875 C 3.015625 -20.15625 3.125 -18.9375 3.28125 -17.8125 C 3.445312 -16.695312 3.585938 -16.039062 3.703125 -15.84375 C 4.453125 -14.851562 6.488281 -15.972656 9.8125 -19.203125 C 12.570312 -21.578125 15.269531 -24.570312 17.90625 -28.1875 C 20.539062 -31.8125 23.40625 -36.457031 26.5 -42.125 C 29.601562 -47.800781 33.160156 -54.828125 37.171875 -63.203125 C 40.722656 -70.441406 43.539062 -76.210938 45.625 -80.515625 C 47.71875 -84.816406 49.46875 -88.273438 50.875 -90.890625 C 51.34375 -91.734375 52.082031 -93.304688 53.09375 -95.609375 C 54.113281 -97.910156 55.117188 -100.363281 56.109375 -102.96875 C 57.578125 -106.625 58.800781 -109.421875 59.78125 -111.359375 C 60.769531 -113.304688 61.726562 -114.734375 62.65625 -115.640625 C 63.582031 -116.554688 64.707031 -117.195312 66.03125 -117.5625 C 67.125 -118.03125 67.925781 -118.273438 68.4375 -118.296875 C 68.945312 -118.316406 69.722656 -118.148438 70.765625 -117.796875 C 72.210938 -117.460938 73.5 -116.785156 74.625 -115.765625 C 75.75 -114.753906 76.550781 -113.539062 77.03125 -112.125 C 77.375 -111.320312 77.546875 -110.332031 77.546875 -109.15625 C 77.554688 -107.976562 77.304688 -106.273438 76.796875 -104.046875 C 76.296875 -101.828125 75.5 -98.695312 74.40625 -94.65625 C 73.320312 -90.613281 71.867188 -85.265625 70.046875 -78.609375 C 69.617188 -76.960938 68.925781 -74.347656 67.96875 -70.765625 C 67.019531 -67.179688 66.113281 -63.738281 65.25 -60.4375 C 64.382812 -57.113281 63.5625 -53.921875 62.78125 -50.859375 C 62.007812 -47.804688 61.5 -45.8125 61.25 -44.875 C 60.96875 -44.039062 60.546875 -42.609375 59.984375 -40.578125 C 59.421875 -38.554688 58.878906 -36.566406 58.359375 -34.609375 C 57.847656 -32.640625 57.128906 -30.046875 56.203125 -26.828125 C 55.285156 -23.617188 54.425781 -20.757812 53.625 -18.25 C 52.820312 -15.757812 51.976562 -13.0625 51.09375 -10.15625 C 50.21875 -7.25 49.554688 -5.066406 49.109375 -3.609375 C 48.671875 -2.148438 48.175781 -0.742188 47.625 0.609375 C 47.070312 1.972656 46.707031 2.816406 46.53125 3.140625 C 45.570312 4.609375 44.285156 5.582031 42.671875 6.0625 C 41.054688 6.550781 39.507812 6.421875 38.03125 5.671875 C 35.738281 4.671875 34.546875 2.171875 34.453125 -1.828125 C 34.398438 -2.847656 34.53125 -4.847656 34.84375 -7.828125 C 35.164062 -10.804688 35.539062 -14.175781 35.96875 -17.9375 C 36.40625 -21.695312 36.867188 -25.328125 37.359375 -28.828125 C 37.859375 -32.335938 38.265625 -35.070312 38.578125 -37.03125 C 38.921875 -38.6875 39.191406 -40.082031 39.390625 -41.21875 C 39.585938 -42.351562 39.632812 -42.921875 39.53125 -42.921875 C 39.425781 -42.910156 39.140625 -42.484375 38.671875 -41.640625 C 38.203125 -40.796875 37.632812 -39.796875 36.96875 -38.640625 Z M 36.96875 -38.640625 "/></g></g></g><g fill="#586db1" fill-opacity="1"><g transform="translate(251.118455, 131.169407)"><g><path d="M 14.328125 4.21875 C 14.117188 4.226562 13.703125 4.144531 13.078125 3.96875 C 11.742188 3.832031 10.628906 2.96875 9.734375 1.375 C 8.835938 -0.21875 8.554688 -1.84375 8.890625 -3.5 C 9.054688 -4.332031 9.070312 -5.023438 8.9375 -5.578125 C 8.800781 -6.140625 8.289062 -7.210938 7.40625 -8.796875 C 6.613281 -10.296875 5.722656 -12.300781 4.734375 -14.8125 C 3.742188 -17.332031 2.847656 -19.976562 2.046875 -22.75 C 1.242188 -25.53125 0.640625 -28.035156 0.234375 -30.265625 C -0.335938 -33.503906 -0.738281 -37.519531 -0.96875 -42.3125 C -1.195312 -47.113281 -1.207031 -52.082031 -1 -57.21875 C -0.789062 -62.351562 -0.421875 -66.929688 0.109375 -70.953125 C 0.773438 -76.085938 1.363281 -79.71875 1.875 -81.84375 C 2.382812 -83.976562 2.976562 -85.414062 3.65625 -86.15625 C 4.4375 -87.007812 5.460938 -87.519531 6.734375 -87.6875 C 8.003906 -87.851562 9.175781 -87.554688 10.25 -86.796875 C 11.507812 -85.929688 12.375 -84.84375 12.84375 -83.53125 C 13.320312 -82.226562 13.582031 -80.039062 13.625 -76.96875 C 13.695312 -75.4375 13.707031 -73.132812 13.65625 -70.0625 C 13.601562 -66.988281 13.535156 -64.117188 13.453125 -61.453125 C 13.359375 -59.304688 13.285156 -56.566406 13.234375 -53.234375 C 13.191406 -49.898438 13.207031 -46.441406 13.28125 -42.859375 C 13.351562 -39.285156 13.4375 -35.960938 13.53125 -32.890625 C 13.632812 -29.828125 13.753906 -27.375 13.890625 -25.53125 C 14.035156 -23.695312 14.148438 -22.988281 14.234375 -23.40625 C 14.421875 -23.613281 14.785156 -24.5 15.328125 -26.0625 C 15.867188 -27.632812 16.453125 -29.40625 17.078125 -31.375 C 17.960938 -33.875 19.296875 -37.316406 21.078125 -41.703125 C 22.867188 -46.085938 24.867188 -50.785156 27.078125 -55.796875 C 29.296875 -60.816406 31.429688 -65.429688 33.484375 -69.640625 C 37.097656 -77.285156 40.914062 -84.53125 44.9375 -91.375 C 48.96875 -98.226562 52.804688 -104.117188 56.453125 -109.046875 C 60.109375 -113.984375 63.171875 -117.328125 65.640625 -119.078125 C 67.410156 -120.398438 69.195312 -120.898438 71 -120.578125 C 72.8125 -120.265625 74.015625 -119.25 74.609375 -117.53125 C 74.847656 -116.832031 74.984375 -116.203125 75.015625 -115.640625 C 75.046875 -115.078125 74.8125 -114.144531 74.3125 -112.84375 C 73.8125 -111.539062 72.859375 -109.472656 71.453125 -106.640625 C 70.046875 -103.804688 68.046875 -99.765625 65.453125 -94.515625 C 64.890625 -93.460938 64.046875 -91.785156 62.921875 -89.484375 C 61.796875 -87.179688 60.488281 -84.507812 59 -81.46875 C 57.507812 -78.425781 56.019531 -75.382812 54.53125 -72.34375 C 53.050781 -69.300781 51.726562 -66.523438 50.5625 -64.015625 C 49.40625 -61.503906 48.5 -59.566406 47.84375 -58.203125 C 47.476562 -57.472656 46.578125 -55.5625 45.140625 -52.46875 C 43.703125 -49.382812 42.148438 -46.054688 40.484375 -42.484375 C 38.910156 -38.921875 37.375 -35.617188 35.875 -32.578125 C 34.382812 -29.546875 33.40625 -27.613281 32.9375 -26.78125 C 30.425781 -21.84375 28.066406 -17.171875 25.859375 -12.765625 C 23.660156 -8.367188 22.144531 -5.273438 21.3125 -3.484375 C 20.75 -2.441406 20.1875 -1.394531 19.625 -0.34375 C 19.070312 0.707031 18.703125 1.394531 18.515625 1.71875 C 18.128906 2.25 17.4375 2.816406 16.4375 3.421875 C 15.445312 4.035156 14.742188 4.300781 14.328125 4.21875 Z M 14.328125 4.21875 "/></g></g></g></g></g></g></g></svg>