<?xml version="1.0" encoding="utf-8"?>
<!-- Generator: Adobe Illustrator 25.2.3, SVG Export Plug-In . SVG Version: 6.00 Build 0)  -->
<svg version="1.1" id="LOGO" xmlns="http://www.w3.org/2000/svg" xmlns:xlink="http://www.w3.org/1999/xlink" x="0px" y="0px"
	 viewBox="0 0 304 56" style="enable-background:new 0 0 304 56;" xml:space="preserve">
<style type="text/css">
	.st0{fill:#373CF5;}
	.st1{fill:#FFFFFF;}
</style>
<path id="Tracé_1" class="st0" d="M276.4,56H27.6C12.3,55.9,0,43.5,0,28.2v-0.4C0,12.5,12.3,0.1,27.6,0h248.8
	C291.7,0.1,304,12.5,304,27.8v0.4C304,43.5,291.7,55.9,276.4,56"/>
<path class="st1" d="M45.7,37.3l3.5,4c-2.9,2.3-6.5,3.6-10.3,3.6c0,0,0,0,0,0c-9.3-0.1-16.7-7.6-16.7-16.9c0-5.7,2.8-11,7.5-14.1
	c4.7-3.1,10.7-3.6,15.8-1.4l-2.1,5c-5.1-2.3-11.1-0.5-14.1,4.1C26.3,26.3,27,32.5,31,36.4C35,40.3,41.2,40.7,45.7,37.3z M39,24.3
	c0.5,0,1,0.1,1.5,0.3l2.1-4.8c-1.1-0.5-2.3-0.7-3.5-0.8c-4.9,0-8.9,4-8.9,8.9l0,0c0,4.9,4,8.9,8.9,8.9c0,0,0,0,0,0
	c1.8,0,3.5-0.6,5-1.6c0,0-3.3-3.7-3.6-4c-0.4,0.2-0.9,0.3-1.4,0.3c-2,0-3.6-1.6-3.6-3.6C35.3,26,36.9,24.4,39,24.3z M45.5,24.6
	c0.5,1.1,0.8,2.3,0.9,3.5c0,1.7-0.6,3.3-1.6,4.7l3.6,3.9c2.2-2.3,3.4-5.4,3.4-8.6c0-2-0.5-3.9-1.3-5.7L45.5,24.6z M48.1,13.3
	L44,22.5l0,0l9.1-4.2C51.8,16.3,50.1,14.6,48.1,13.3z M70.2,23.3c-1.7,0-2.9-1.3-2.9-4.4c0-3.2,1.2-4.5,2.8-4.5
	c0.9,0,1.7,0.3,2.3,0.9l1.5-1.7l0,0c-1.1-0.9-2.5-1.4-3.9-1.4c-3.4,0-5.9,2.3-5.9,6.7s2.3,6.8,5.9,6.8c1.5,0,3-0.6,4-1.7l-1.4-1.7
	C72.1,22.9,71.2,23.3,70.2,23.3z M80.8,23.3c-1.7,0-2.9-1.3-2.9-4.4c0-3.2,1.2-4.5,2.8-4.5c0.9,0,1.7,0.3,2.3,0.9l1.4-1.7l0,0
	c-1.1-0.9-2.5-1.4-3.9-1.4c-3.4,0-5.9,2.3-5.9,6.7s2.3,6.8,5.9,6.8c1.5,0,3-0.6,4.1-1.7l-1.4-1.7C82.6,22.9,81.7,23.3,80.8,23.3z
	 M88.9,12.4h-3.1v12.9h3.1V12.4z M98.4,25.3h-3.1V12.4h4.2c3.3,0,5.4,1.4,5.4,4.2c0,3-2.1,4.4-5.1,4.4h-1.4V25.3z M98.4,18.8h1.1
	c1.4,0,2.2-0.6,2.2-2.2c0-1.4-0.8-2-2.3-2h-1.1V18.8z M112.5,12.4l3.9,12.9h-3.2l-0.7-2.8h-3.8l-0.6,2.8h-3.2l3.9-12.9H112.5z
	 M111.9,20.4l-1.4-5.7l-1.4,5.7H111.9z M124.2,19.9l3.3,5.5H124l-2.7-4.9h-1.2v4.9h-3V12.4h4.2c3.5,0,5.3,1.2,5.3,3.9
	C126.7,18,125.7,19.4,124.2,19.9z M123.5,16.3c0-1.4-0.7-1.8-2.2-1.8h-1.1l0,3.7h1.3C122.8,18.3,123.5,17.7,123.5,16.3z M131.5,12.4
	h-3.1v12.9h3.1V12.4z M138.9,17.4c-2-0.6-2.5-1-2.5-1.8c0-0.8,0.7-1.3,1.7-1.3c1,0,2.1,0.4,2.8,1.1l1.4-1.7l0,0
	c-1.2-1.1-2.8-1.7-4.5-1.6c-2.7,0-4.7,1.5-4.7,3.7c0,1.9,1,3.1,3.9,4c1.9,0.6,2.4,1,2.4,2c0,1-0.8,1.6-2,1.6c-1.2,0-2.4-0.5-3.3-1.3
	l-1.5,1.7c1.3,1.2,3.1,1.9,4.9,1.8c3.2,0,5.2-1.7,5.2-4.1S141.3,18.2,138.9,17.4z M151.5,12.4h-3.1v12.9h3.1V12.4z M161.8,22.9h-5
	l0-10.5h-3v12.9h7.7L161.8,22.9z M171,23.2h-4.9v-3.3h3.9v-2.1h-3.9v-3.1h4.5l0.4-2.2h-7.9v12.9h7.9V23.2z M190.4,18.8
	c0,5.2-3.1,6.5-6.4,6.5H180V12.4h3.6C187.1,12.4,190.4,13.5,190.4,18.8z M187.2,18.8c0-3.4-1.3-4.2-3.1-4.2h-0.9v8.5h1
	C185.9,23.1,187.2,22.3,187.2,18.8z M199.6,14.6l0.4-2.2H192v12.9h7.9v-2.2h-4.9v-3.3h4v-2.1h-4v-3.1H199.6z M209,25.3h3v-5.1h3.8
	V18h-3.8v-3.4h4.3l0.3-2.2H209V25.3z M235.4,12.4l3.9,12.9h-3.2l-0.7-2.8h-3.8l-0.6,2.8h-2.7h-0.5h-3l-2.7-4.9H221v4.9h-3V12.4h4.2
	c3.5,0,5.3,1.2,5.3,3.9c0,1.6-1,3-2.5,3.5l3,5l3.8-12.4H235.4z M224.3,16.3c0-1.4-0.7-1.8-2.2-1.8H221l0,3.7h1.3
	C223.6,18.3,224.3,17.7,224.3,16.3z M234.8,20.4l-1.4-5.7l-1.3,5.7H234.8z M247.2,12.4v5.2c0,1.6,0.1,3.2,0.4,4.8l-3.8-10H240v12.9
	h2.7v-4.7c0-1.8-0.1-3.5-0.4-5.3l3.7,10h3.9l0-12.9H247.2z M257.7,23.3c-1.7,0-2.8-1.3-2.8-4.4c0-3.2,1.2-4.5,2.8-4.5
	c0.9,0,1.7,0.3,2.3,0.9l1.5-1.7v0c-1.1-0.9-2.5-1.4-3.9-1.4c-3.4,0-5.9,2.3-5.9,6.7s2.3,6.8,5.9,6.8c1.5,0,3-0.6,4.1-1.7l-1.4-1.7
	C259.5,22.9,258.6,23.3,257.7,23.3z M265.8,19.9h3.9v-2.1h-3.9v-3.1h4.5l0.4-2.2h-7.9v12.9h7.9v-2.2h-4.9V19.9z M67.8,37.7h3.9v-2.1
	h-3.9v-3.1h4.5l0.3-2.2h-7.9v12.9h7.9V41h-4.9V37.7z M81.6,35.5c0,1.6,0.1,3.2,0.4,4.8l-3.8-10h-3.8v12.9h2.7v-4.7
	c0-1.8-0.1-3.5-0.4-5.3l3.7,10h3.9l0-12.9h-2.7V35.5z M85.5,32.6h3.3v10.6h3.1V32.6h3.2l0.3-2.3h-9.9V32.6z M103.5,37.7l3.3,5.5
	h-3.4l-2.6-4.9h-1.2v4.9h-3.1V30.3h4.2c3.5,0,5.3,1.2,5.3,3.9C106,35.8,105,37.2,103.5,37.7z M102.8,34.2c0-1.4-0.7-1.8-2.2-1.8
	h-1.1l0,3.7h1.3C102.1,36.1,102.8,35.5,102.8,34.2z M115.3,32.4l0.4-2.2h-7.9v12.9h7.9V41h-4.9v-3.3h3.9v-2.1h-3.9v-3.1H115.3z
	 M126.9,34.5c0,3-2.1,4.4-5.1,4.4h-1.4v4.3h-3V30.3h4.2C124.8,30.3,126.9,31.6,126.9,34.5z M123.8,34.5c0-1.4-0.8-2-2.3-2h-1.1v4.2
	h1.1C122.9,36.6,123.8,36.1,123.8,34.5L123.8,34.5z M135.4,37.7l3.3,5.5h-3.4l-2.6-4.9h-1.2v4.9h-3.1V30.3h4.2
	c3.5,0,5.3,1.2,5.3,3.9C137.9,35.8,136.9,37.2,135.4,37.7z M134.7,34.2c0-1.4-0.7-1.8-2.2-1.8h-1.1l0,3.7h1.3
	C134,36.1,134.7,35.5,134.7,34.2z M139.6,43.2h3.1V30.3h-3.1V43.2z M150.1,35.2c-2-0.6-2.5-1-2.5-1.8c0-0.8,0.7-1.3,1.7-1.3
	c1,0,2.1,0.4,2.8,1.1l1.4-1.7c-1.2-1.1-2.8-1.7-4.4-1.6c-2.7,0-4.7,1.5-4.7,3.7c0,1.9,1,3.1,3.9,4c1.9,0.6,2.4,1,2.4,2
	s-0.8,1.6-2,1.6c-1.2,0-2.4-0.5-3.3-1.3l-1.6,1.7c1.3,1.2,3.1,1.9,4.9,1.8c3.2,0,5.1-1.7,5.1-4.1S152.5,36,150.1,35.2z M163,32.4
	l0.4-2.2h-7.9v12.9h7.9V41h-4.9v-3.3h3.9v-2.1h-3.9v-3.1H163z M170.1,35.2c-2-0.6-2.5-1-2.5-1.8c0-0.8,0.7-1.3,1.7-1.3
	c1,0,2.1,0.4,2.8,1.1l1.4-1.7h0c-1.2-1.1-2.8-1.8-4.5-1.7c-2.7,0-4.7,1.5-4.7,3.7c0,1.9,1,3.1,3.9,4c1.9,0.6,2.4,1,2.4,2
	s-0.8,1.6-2,1.6c-1.2,0-2.4-0.5-3.3-1.3l-1.5,1.7c1.3,1.2,3.1,1.9,4.9,1.8c3.2,0,5.1-1.7,5.1-4.1S172.6,36,170.1,35.2z M172.3,20.7
	h5.9v-2.3h-5.9V20.7z M201.2,20.7h5.9v-2.3h-5.9V20.7z"/>
</svg>
