<?xml version="1.0" encoding="UTF-8" standalone="no"?>
<!-- Created with Inkscape (http://www.inkscape.org/) -->

<svg
   xmlns:dc="http://purl.org/dc/elements/1.1/"
   xmlns:cc="http://creativecommons.org/ns#"
   xmlns:rdf="http://www.w3.org/1999/02/22-rdf-syntax-ns#"
   xmlns:svg="http://www.w3.org/2000/svg"
   xmlns="http://www.w3.org/2000/svg"
   xmlns:xlink="http://www.w3.org/1999/xlink"
   xmlns:sodipodi="http://sodipodi.sourceforge.net/DTD/sodipodi-0.dtd"
   xmlns:inkscape="http://www.inkscape.org/namespaces/inkscape"
   id="svg2"
   version="1.1"
   inkscape:version="0.91 r13725"
   xml:space="preserve"
   width="800"
   height="590"
   viewBox="0 0 800 590"
   sodipodi:docname="Logo Clichy-la-Garenne.svg"><metadata
     id="metadata8"><rdf:RDF><cc:Work
         rdf:about=""><dc:format>image/svg+xml</dc:format><dc:type
           rdf:resource="http://purl.org/dc/dcmitype/StillImage" /><dc:title></dc:title></cc:Work></rdf:RDF></metadata><defs
     id="defs6"><linearGradient
       inkscape:collect="always"
       id="linearGradient4764"><stop
         style="stop-color:#0f1d1e;stop-opacity:1"
         offset="0"
         id="stop4766" /><stop
         style="stop-color:#0459a1;stop-opacity:1"
         offset="1"
         id="stop4768" /></linearGradient><radialGradient
       inkscape:collect="always"
       xlink:href="#linearGradient4764"
       id="radialGradient4770"
       cx="5.3189712"
       cy="246.59767"
       fx="5.3189712"
       fy="246.59767"
       r="315.99999"
       gradientTransform="matrix(2.016496,-0.0269315,0.00979992,0.7323078,-7.8233499,63.166752)"
       gradientUnits="userSpaceOnUse" /></defs><sodipodi:namedview
     pagecolor="#ffffff"
     bordercolor="#666666"
     borderopacity="1"
     objecttolerance="10"
     gridtolerance="10"
     guidetolerance="10"
     inkscape:pageopacity="0"
     inkscape:pageshadow="2"
     inkscape:window-width="1440"
     inkscape:window-height="788"
     id="namedview4"
     showgrid="false"
     inkscape:zoom="0.75202514"
     inkscape:cx="418.44305"
     inkscape:cy="344.31189"
     inkscape:window-x="0"
     inkscape:window-y="1"
     inkscape:window-maximized="1"
     inkscape:current-layer="g10" /><g
     id="g10"
     inkscape:groupmode="layer"
     inkscape:label="Logo Clichy-la-Garenne"
     transform="matrix(1.25,0,0,-1.25,0,590.00003)"><g
       id="g4737"
       style="fill:url(#radialGradient4770);fill-opacity:1"><g
         id="g4663"
         style="fill:url(#radialGradient4770);fill-opacity:1"><path
           style="fill:url(#radialGradient4770);fill-opacity:1;fill-rule:nonzero;stroke:none"
           d="m 294.38312,463.78208 c -0.85127,0.13174 -1.89193,0.1032 -3.08777,-0.0795 l -8.47155,-1.40928 3.29362,-19.61921 8.45574,1.44095 c 2.96933,0.48645 4.96641,2.06928 5.9697,4.73458 0.74993,1.98631 0.89497,4.28361 0.45888,6.8881 -0.17269,1.02356 -0.48239,2.08828 -0.9184,3.18278 -0.44591,1.09449 -1.08055,2.06801 -1.93183,2.92942 -1.06409,1.07423 -2.30938,1.70888 -3.76871,1.93183 z m -3.2303,-3.56281 c 1.8647,0.29389 3.19552,-0.0349 4.00618,-0.99759 0.81074,-0.96275 1.37136,-2.45311 1.72606,-4.44955 0.22295,-1.46946 0.23349,-2.72864 0,-3.86367 -0.45564,-2.03698 -1.64304,-3.21698 -3.57868,-3.53114 l -3.76863,-0.64924 -2.16937,12.84195 3.78444,0.64924 z"
           id="path4252"
           inkscape:connector-curvature="0" /><path
           style="fill:url(#radialGradient4770);fill-opacity:1;fill-rule:nonzero;stroke:none"
           d="m 325.83227,466.85997 0.17228,-3.51657 -10.31663,-0.44591 0.18241,-4.2361 9.46536,0.43577 0.14188,-3.42536 -9.45522,-0.41551 0.22295,-5.11777 10.79294,0.45604 0.16214,-3.56725 -14.86689,-0.65872 -0.88167,19.85292 14.38045,0.63846 z"
           id="path4254"
           inkscape:connector-curvature="0" /><path
           style="fill:url(#radialGradient4770);fill-opacity:1;fill-rule:nonzero;stroke:none"
           d="m 174.19402,407.69643 13.43797,-14.67434 -3.0504,-2.77678 -13.4481,14.68448 3.06053,2.76664 z"
           id="path4250"
           inkscape:connector-curvature="0" /><path
           style="fill:url(#radialGradient4770);fill-opacity:1;fill-rule:nonzero;stroke:none"
           d="m 170.82946,376.20942 -19.30568,8.36073 2.9896,3.28349 14.11696,-6.94194 -8.28979,13.35689 2.89839,3.18215 10.20515,-18.35306 -2.61463,-2.88826 z"
           id="path4244"
           inkscape:connector-curvature="0" /><path
           style="fill:url(#radialGradient4770);fill-opacity:1;fill-rule:nonzero;stroke:none"
           d="m 195.73936,400.01469 -12.04958,15.82965 3.30375,2.49301 9.86059,-12.97179 7.89456,5.96905 2.16872,-2.84771 -11.17804,-8.47221 z"
           id="path4240"
           inkscape:connector-curvature="0" /><path
           style="fill:url(#radialGradient4770);fill-opacity:1;fill-rule:nonzero;stroke:none"
           d="m 214.89302,413.75669 -10.18488,17.06601 3.53684,2.10792 8.36073,-13.99535 8.52287,5.06711 1.82416,-3.07067 -12.05972,-7.17502 z"
           id="path4238"
           inkscape:connector-curvature="0" /><path
           style="fill:url(#radialGradient4770);fill-opacity:1;fill-rule:nonzero;stroke:none"
           d="m 227.31757,443.4398 13.13394,5.89811 1.4492,-3.21254 -9.42482,-4.22597 1.73295,-3.84087 8.63435,3.88141 1.41879,-3.12134 -8.63435,-3.89154 2.11805,-4.68201 9.84032,4.43879 1.48973,-3.26322 -13.55958,-6.11093 -8.19858,18.13011 z"
           id="path4236"
           inkscape:connector-curvature="0" /></g><g
         id="g4672"
         style="fill:url(#radialGradient4770);fill-opacity:1"><path
           style="fill:url(#radialGradient4770);fill-opacity:1;fill-rule:nonzero;stroke:none"
           d="m 360.25551,26.047374 -4.68703,-0.617539 -4.44957,-20.6167935 4.32285,0.5700293 0.8075,4.2278644 7.23647,0.9500868 1.83681,-3.8795071 4.48127,0.5859198 -9.54838,18.7799633 z m -1.8051,-4.813752 3.49946,-7.426482 -5.01959,-0.649238 1.52013,8.075704 z"
           id="path4232"
           inkscape:connector-curvature="0" /><path
           style="fill:url(#radialGradient4770);fill-opacity:1;fill-rule:nonzero;stroke:none"
           d="m 437.05389,52.649685 -4.1012,-2.296031 3.61029,-20.790973 3.80033,2.137687 -0.83919,4.212031 6.3655,3.594476 3.16699,-2.929421 3.91115,2.216864 -15.91387,13.855367 z m 0.15809,-5.13045 6.01721,-5.573817 -4.41787,-2.501878 -1.59934,8.075695 z"
           id="path4226"
           inkscape:connector-curvature="0" /><path
           style="fill:url(#radialGradient4770);fill-opacity:1;fill-rule:nonzero;stroke:none"
           d="m 460.96431,68.025185 c -0.77993,-0.172281 -1.71966,-0.680857 -2.83442,-1.440955 l -7.67987,-5.652995 11.81268,-16.008888 3.27781,2.406876 -4.6396,6.270541 3.29362,2.422718 c 0.92221,0.689126 1.68228,0.977951 2.2802,0.886735 0.58778,-0.07135 1.26677,-0.633348 2.02684,-1.646802 l 1.14014,-1.488464 c 0.37537,-0.45604 0.75074,-0.851274 1.15595,-1.266777 0.21322,-0.182416 0.47428,-0.407314 0.83919,-0.680857 l 3.6895,2.70774 -0.28538,0.395883 c -0.46617,-0.04054 -0.88735,0.100045 -1.28258,0.475011 -0.24322,0.202684 -0.65021,0.689775 -1.18757,1.409288 l -0.79209,1.076756 c -0.82087,1.135032 -1.60688,1.855194 -2.29601,2.169355 -0.71993,0.31416 -1.56067,0.354049 -2.53355,0.110827 0.66886,0.952617 0.90194,1.941967 0.75966,2.945262 -0.16215,1.013414 -0.50914,1.9103 -1.07674,2.660223 -0.46617,0.64859 -0.98878,1.128068 -1.53602,1.472632 -0.57806,0.344563 -1.18254,0.602377 -1.821,0.744256 -0.7702,0.212819 -1.53148,0.214116 -2.31182,0.03162 z m 0.26916,-3.863665 c 0.85128,0.121611 1.63988,-0.315458 2.35941,-1.298444 0.66886,-0.881685 0.8113,-1.711417 0.39564,-2.501886 -0.24322,-0.415503 -0.71021,-0.90385 -1.40922,-1.440964 l -3.642,-2.660231 -3.18279,4.322883 3.72112,2.707732 c 0.67859,0.516845 1.28137,0.810089 1.75768,0.87091 z"
           id="path4224"
           inkscape:connector-curvature="0" /><path
           style="fill:url(#radialGradient4770);fill-opacity:1;fill-rule:nonzero;stroke:none"
           d="m 327.28146,4.0000131 -0.29389,19.8630599 4.12462,0.0608 0.24322,-16.2755479 9.91126,0.141879 0.0608,-3.5976459 -14.04602,-0.1925501 z"
           id="path4234"
           inkscape:connector-curvature="0" /><path
           style="fill:url(#radialGradient4770);fill-opacity:1;fill-rule:nonzero;stroke:none"
           d="m 424.07334,23.721194 -1.32759,2.138319 c -0.39523,-1.155301 -0.81073,-2.057246 -1.25664,-2.665299 -0.76006,-1.013421 -1.88496,-1.824158 -3.36456,-2.452479 -2.44234,-0.993153 -4.79348,-0.962751 -7.03314,0.08107 -2.33087,1.023556 -4.09422,3.019996 -5.32046,5.969052 -1.20598,2.969325 -1.36812,5.685294 -0.45604,8.158043 0.89181,2.462614 2.70583,4.246235 5.40153,5.350865 2.34101,0.972884 4.47932,1.135032 6.39469,0.547247 1.8951,-0.628321 3.32402,-1.753219 4.27664,-3.455767 l -3.84087,-1.560669 c -0.8006,1.135032 -1.87483,1.732951 -3.21254,1.773488 -0.7398,0.01013 -1.49987,-0.152013 -2.2802,-0.445906 -1.46946,-0.628321 -2.47275,-1.672145 -2.95919,-3.172009 -0.49658,-1.509998 -0.28376,-3.384827 0.64859,-5.624488 0.91208,-2.249796 2.09778,-3.638183 3.5267,-4.155028 1.40866,-0.526979 2.76664,-0.516845 4.08409,0.0304 1.28705,0.537114 2.19913,1.327582 2.71597,2.391675 0.51685,1.084361 0.62832,2.249795 0.33443,3.526706 l -4.2361,-1.73295 -1.26678,3.080801 7.66147,3.121338 4.08409,-9.850456 -2.57409,-1.053958 z"
           id="path4228"
           inkscape:connector-curvature="0" /><path
           style="fill:url(#radialGradient4770);fill-opacity:1;fill-rule:nonzero;stroke:none"
           d="m 484.6658,62.362952 -13.61025,14.522328 10.50918,9.820054 2.41194,-2.584225 -7.54998,-7.02301 2.87811,-3.10107 6.94194,6.465629 2.32073,-2.513285 -6.9014,-6.425092 3.51658,-3.759793 7.88441,7.367573 2.45248,-2.624761 -10.85374,-10.144348 z"
           id="path4222"
           inkscape:connector-curvature="0" /><path
           style="fill:url(#radialGradient4770);fill-opacity:1;fill-rule:nonzero;stroke:none"
           d="m 511.42013,90.221906 -16.083,2.908519 10.82334,-9.120792 -2.47275,-2.918654 -15.22159,12.819781 2.77678,3.303753 15.71816,-2.878116 -10.62065,8.907973 2.48288,2.93892 15.26212,-12.799509 -2.66529,-3.161875 z"
           id="path4220"
           inkscape:connector-curvature="0" /><path
           style="fill:url(#radialGradient4770);fill-opacity:1;fill-rule:nonzero;stroke:none"
           d="m 527.98957,113.27724 -16.30595,0.92222 11.86716,-7.73241 -2.12818,-3.20241 -16.67079,10.87401 2.37141,3.62805 15.94112,-0.94248 -11.62395,7.57026 2.12819,3.19227 16.67078,-10.85374 -2.24979,-3.45577 z"
           id="path4218"
           inkscape:connector-curvature="0" /><path
           style="fill:url(#radialGradient4770);fill-opacity:1;fill-rule:nonzero;stroke:none"
           d="m 536.3807,127.56648 -17.87676,8.81677 6.38456,12.86032 3.15174,-1.5404 -4.57053,-9.25254 3.78006,-1.85456 4.2057,8.46207 3.09093,-1.52013 -4.19556,-8.48234 4.60093,-2.25993 4.79348,9.6579 3.22268,-1.59107 -6.58723,-13.29609 z"
           id="path4216"
           inkscape:connector-curvature="0" /></g><g
         id="g4683"
         style="fill:url(#radialGradient4770);fill-opacity:1"><path
           style="fill:url(#radialGradient4770);fill-opacity:1;fill-rule:nonzero;stroke:none"
           d="m 436.28506,277.13735 20.42044,0 0,-30.38237 20.03535,0 0,30.38237 20.43057,0 0,-79.08741 -20.43057,0 0,33.87868 -20.03535,0 0,-33.87868 -20.42044,0 0,79.08741 z"
           id="path4256"
           inkscape:connector-curvature="0" /><path
           style="fill:url(#radialGradient4770);fill-opacity:1;fill-rule:nonzero;stroke:none"
           d="m 29.599056,242.0223 c 0,-35.82445 22.923592,-58.49469 22.923592,-58.49469 L 34.767505,165.82314 c 0,0 -30.7674736,28.42647 -30.7674736,76.19916 0,47.35718 33.4429066,77.43553 33.4429066,77.43553 L 54.995396,301.9459 c 0,0 -25.39634,-23.48097 -25.39634,-59.9236"
           id="path4248"
           inkscape:connector-curvature="0" /><path
           style="fill:url(#radialGradient4770);fill-opacity:1;fill-rule:nonzero;stroke:none"
           d="m 130.70811,219.423 -28.85211,0 0,45.2594 11.50233,0 0,-36.20955 17.34978,0 0,-9.04985 z"
           id="path4246"
           inkscape:connector-curvature="0" /><path
           style="fill:url(#radialGradient4770);fill-opacity:1;fill-rule:nonzero;stroke:none"
           d="m 190.92561,213.69717 -14.96824,0 0,54.37006 14.96824,0 0,-54.37006 z"
           id="path4242"
           inkscape:connector-curvature="0" /><path
           style="fill:url(#radialGradient4770);fill-opacity:1;fill-rule:nonzero;stroke:none"
           d="m 327.68683,132.03567 c -29.34869,0.22296 -57.11643,11.62395 -76.66533,31.74036 l 17.73487,17.66394 -0.49657,0.48644 c -14.5426,16.4985 -22.63984,39.14847 -22.63984,57.613 0,23.42017 9.78965,42.30021 23.73433,58.57576 l 2.2498,1.74309 -17.49166,17.22816 c 16.45797,17.25857 44.75269,28.80144 73.5744,28.80144 30.50398,0 57.68394,-12.02932 77.21257,-32.39909 L 369.46006,278.1305 c -10.63079,10.7524 -24.73762,17.9781 -41.35773,17.9781 -31.77076,0 -57.50153,-25.7105 -57.50153,-57.37992 0,-31.68969 25.60916,-57.02522 57.39005,-57.02522 15.93099,0 29.9162,6.48589 40.74968,17.02548 l 35.39881,-35.31774 c -19.42729,-19.39689 -46.77953,-31.61875 -76.45251,-31.37553"
           id="path4230"
           inkscape:connector-curvature="0" /><path
           style="fill:url(#radialGradient4770);fill-opacity:1;fill-rule:nonzero;stroke:none"
           d="m 606.29664,227.60131 0,-37.67901 -23.02494,0 0,37.67901 -27.2509,54.37006 24.66668,0 14.84662,-34.39552 16.62011,34.39552 23.84581,0 -29.70338,-54.37006 z"
           id="path76"
           inkscape:connector-curvature="0" /></g></g></g></svg>